<svg width="134" height="73" viewBox="0 0 134 73" fill="none" xmlns="http://www.w3.org/2000/svg">
<path d="M4.2 72.7C3.13333 72.7 2.26667 72.4667 1.6 72C1 71.4667 0.633333 70.8 0.5 70C0.433333 69.1333 0.633333 68.1667 1.1 67.1L28.6 4.5C29.2 3.16666 29.9 2.23333 30.7 1.7C31.5667 1.1 32.5 0.799999 33.5 0.799999C34.5 0.799999 35.4 1.1 36.2 1.7C37.0667 2.23333 37.7667 3.16666 38.3 4.5L65.9 67.1C66.4333 68.1667 66.6333 69.1333 66.5 70C66.4333 70.8667 66.1 71.5333 65.5 72C64.9 72.4667 64.0667 72.7 63 72.7C61.8 72.7 60.8333 72.4 60.1 71.8C59.3667 71.1333 58.7667 70.2 58.3 69L50.9 51.9L54.9 54H11.9L16 51.9L8.7 69C8.1 70.2667 7.46667 71.2 6.8 71.8C6.13333 72.4 5.26667 72.7 4.2 72.7ZM33.4 11.1L17.3 49L14.9 47.1H51.9L49.7 49L33.6 11.1H33.4ZM109.58 72.9C102.046 72.9 95.6797 71.4667 90.4797 68.6C85.3464 65.7333 81.4464 61.6 78.7797 56.2C76.113 50.8 74.7797 44.3333 74.7797 36.8C74.7797 31.2 75.513 26.1667 76.9797 21.7C78.513 17.2333 80.713 13.4667 83.5797 10.4C86.513 7.26666 90.0464 4.86666 94.1797 3.2C98.3797 1.46666 103.113 0.599995 108.38 0.599995C112.58 0.599995 116.646 1.2 120.58 2.4C124.513 3.53333 128.013 5.36666 131.08 7.9C131.88 8.5 132.38 9.16666 132.58 9.89999C132.78 10.6333 132.746 11.3667 132.48 12.1C132.28 12.8333 131.913 13.4667 131.38 14C130.913 14.4667 130.28 14.7333 129.48 14.8C128.746 14.8667 127.98 14.6333 127.18 14.1C124.446 11.9667 121.546 10.4333 118.48 9.5C115.413 8.5 112.013 8 108.28 8C102.946 8 98.413 9.13333 94.6797 11.4C91.013 13.6667 88.213 16.9333 86.2797 21.2C84.413 25.4667 83.4797 30.6667 83.4797 36.8C83.4797 46.1333 85.6464 53.2667 89.9797 58.2C94.3797 63.1333 100.98 65.6 109.78 65.6C112.98 65.6 116.113 65.3 119.18 64.7C122.246 64.0333 125.146 63.1333 127.88 62L126.08 66.7V41.8H111.78C110.58 41.8 109.68 41.5 109.08 40.9C108.48 40.3 108.18 39.5 108.18 38.5C108.18 37.4333 108.48 36.6333 109.08 36.1C109.68 35.5667 110.58 35.3 111.78 35.3H129.68C130.813 35.3 131.68 35.6 132.28 36.2C132.88 36.8 133.18 37.6667 133.18 38.8V64.9C133.18 65.9 133.013 66.7333 132.68 67.4C132.346 68.0667 131.78 68.5667 130.98 68.9C128.18 70.0333 124.813 71 120.88 71.8C117.013 72.5333 113.246 72.9 109.58 72.9Z" fill="#CF1F1F"/>
</svg>
