<svg width="194" height="65" viewBox="0 0 194 65" fill="none" xmlns="http://www.w3.org/2000/svg">
<path d="M46.36 41.36C43.3467 41.36 40.8 40.7867 38.72 39.64C36.6667 38.4933 35.1067 36.84 34.04 34.68C32.9733 32.52 32.44 29.9333 32.44 26.92C32.44 24.68 32.7333 22.6667 33.32 20.88C33.9333 19.0933 34.8133 17.5867 35.96 16.36C37.1333 15.1067 38.5467 14.1467 40.2 13.48C41.88 12.7867 43.7733 12.44 45.88 12.44C47.56 12.44 49.1867 12.68 50.76 13.16C52.3333 13.6133 53.7333 14.3467 54.96 15.36C55.28 15.6 55.48 15.8667 55.56 16.16C55.64 16.4533 55.6267 16.7467 55.52 17.04C55.44 17.3333 55.2933 17.5867 55.08 17.8C54.8933 17.9867 54.64 18.0933 54.32 18.12C54.0267 18.1467 53.72 18.0533 53.4 17.84C52.3067 16.9867 51.1467 16.3733 49.92 16C48.6933 15.6 47.3333 15.4 45.84 15.4C43.7067 15.4 41.8933 15.8533 40.4 16.76C38.9333 17.6667 37.8133 18.9733 37.04 20.68C36.2933 22.3867 35.92 24.4667 35.92 26.92C35.92 30.6533 36.7867 33.5067 38.52 35.48C40.28 37.4533 42.92 38.44 46.44 38.44C47.72 38.44 48.9733 38.32 50.2 38.08C51.4267 37.8133 52.5867 37.4533 53.68 37L52.96 38.88V28.92H47.24C46.76 28.92 46.4 28.8 46.16 28.56C45.92 28.32 45.8 28 45.8 27.6C45.8 27.1733 45.92 26.8533 46.16 26.64C46.4 26.4267 46.76 26.32 47.24 26.32H54.4C54.8533 26.32 55.2 26.44 55.44 26.68C55.68 26.92 55.8 27.2667 55.8 27.72V38.16C55.8 38.56 55.7333 38.8933 55.6 39.16C55.4667 39.4267 55.24 39.6267 54.92 39.76C53.8 40.2133 52.4533 40.6 50.88 40.92C49.3333 41.2133 47.8267 41.36 46.36 41.36ZM73.6234 41.36C71.7568 41.36 70.1168 41.12 68.7034 40.64C67.3168 40.1333 66.1434 39.4 65.1834 38.44C64.2234 37.4533 63.5034 36.24 63.0234 34.8C62.5434 33.36 62.3034 31.7067 62.3034 29.84V14.2C62.3034 13.64 62.4368 13.2267 62.7034 12.96C62.9968 12.6667 63.4101 12.52 63.9434 12.52C64.4768 12.52 64.8768 12.6667 65.1434 12.96C65.4368 13.2267 65.5834 13.64 65.5834 14.2V29.68C65.5834 32.6133 66.2634 34.8133 67.6234 36.28C68.9834 37.72 70.9834 38.44 73.6234 38.44C76.2634 38.44 78.2501 37.72 79.5834 36.28C80.9168 34.8133 81.5834 32.6133 81.5834 29.68V14.2C81.5834 13.64 81.7301 13.2267 82.0234 12.96C82.3168 12.6667 82.7301 12.52 83.2634 12.52C83.7701 12.52 84.1568 12.6667 84.4234 12.96C84.7168 13.2267 84.8634 13.64 84.8634 14.2V29.84C84.8634 32.32 84.4368 34.4267 83.5834 36.16C82.7568 37.8933 81.5034 39.2 79.8234 40.08C78.1434 40.9333 76.0768 41.36 73.6234 41.36ZM100.725 41.36C99.4717 41.36 98.245 41.2533 97.045 41.04C95.845 40.8267 94.725 40.52 93.685 40.12C92.6717 39.72 91.7517 39.2133 90.925 38.6C90.605 38.36 90.3783 38.0933 90.245 37.8C90.1383 37.48 90.1117 37.1733 90.165 36.88C90.245 36.56 90.3783 36.2933 90.565 36.08C90.7783 35.8667 91.0317 35.7467 91.325 35.72C91.6183 35.6933 91.9383 35.7867 92.285 36C93.485 36.8533 94.765 37.48 96.125 37.88C97.485 38.2533 99.0183 38.44 100.725 38.44C103.125 38.44 104.898 38 106.045 37.12C107.218 36.2133 107.805 35.0267 107.805 33.56C107.805 32.36 107.378 31.4267 106.525 30.76C105.698 30.0667 104.298 29.52 102.325 29.12L98.165 28.28C95.6583 27.7467 93.7783 26.88 92.525 25.68C91.2983 24.4533 90.685 22.8267 90.685 20.8C90.685 19.5467 90.9383 18.4133 91.445 17.4C91.9517 16.36 92.6583 15.48 93.565 14.76C94.4717 14.0133 95.5517 13.44 96.805 13.04C98.0583 12.64 99.445 12.44 100.965 12.44C102.645 12.44 104.205 12.68 105.645 13.16C107.112 13.6133 108.432 14.3067 109.605 15.24C109.898 15.48 110.098 15.76 110.205 16.08C110.312 16.3733 110.325 16.6667 110.245 16.96C110.165 17.2267 110.018 17.4533 109.805 17.64C109.618 17.8267 109.365 17.9333 109.045 17.96C108.752 17.9867 108.418 17.88 108.045 17.64C106.978 16.84 105.872 16.2667 104.725 15.92C103.578 15.5467 102.312 15.36 100.925 15.36C99.5117 15.36 98.285 15.5733 97.245 16C96.2317 16.4267 95.4317 17.0533 94.845 17.88C94.285 18.68 94.005 19.6133 94.005 20.68C94.005 21.96 94.3917 22.9733 95.165 23.72C95.965 24.4667 97.2583 25.0133 99.045 25.36L103.205 26.24C105.898 26.8 107.885 27.6533 109.165 28.8C110.472 29.92 111.125 31.4533 111.125 33.4C111.125 34.5733 110.885 35.6533 110.405 36.64C109.925 37.6267 109.232 38.48 108.325 39.2C107.418 39.8933 106.325 40.4267 105.045 40.8C103.765 41.1733 102.325 41.36 100.725 41.36ZM118.014 41C117.428 41 116.974 40.8533 116.654 40.56C116.361 40.24 116.214 39.7867 116.214 39.2V14.6C116.214 14.0133 116.361 13.5733 116.654 13.28C116.974 12.96 117.428 12.8 118.014 12.8H132.894C133.348 12.8 133.694 12.92 133.934 13.16C134.174 13.4 134.294 13.7333 134.294 14.16C134.294 14.6133 134.174 14.96 133.934 15.2C133.694 15.44 133.348 15.56 132.894 15.56H119.414V25.32H132.054C132.508 25.32 132.854 25.44 133.094 25.68C133.334 25.8933 133.454 26.2267 133.454 26.68C133.454 27.1333 133.334 27.48 133.094 27.72C132.854 27.96 132.508 28.08 132.054 28.08H119.414V38.24H132.894C133.348 38.24 133.694 38.36 133.934 38.6C134.174 38.84 134.294 39.1733 134.294 39.6C134.294 40.0533 134.174 40.4 133.934 40.64C133.694 40.88 133.348 41 132.894 41H118.014ZM149.581 41.28C149.075 41.28 148.661 41.16 148.341 40.92C148.021 40.68 147.768 40.32 147.581 39.84L136.581 14.68C136.395 14.2267 136.341 13.8533 136.421 13.56C136.501 13.24 136.675 12.9867 136.941 12.8C137.235 12.6133 137.568 12.52 137.941 12.52C138.448 12.52 138.821 12.64 139.061 12.88C139.328 13.0933 139.541 13.4133 139.701 13.84L150.261 38.36H148.981L159.501 13.8C159.688 13.4 159.915 13.0933 160.181 12.88C160.448 12.64 160.821 12.52 161.301 12.52C161.675 12.52 161.981 12.6133 162.221 12.8C162.488 12.9867 162.648 13.24 162.701 13.56C162.781 13.88 162.728 14.2533 162.541 14.68L151.541 39.84C151.355 40.32 151.101 40.68 150.781 40.92C150.488 41.16 150.088 41.28 149.581 41.28Z" fill="white"/>
<path d="M42.694 60C42.582 60 42.4933 59.972 42.428 59.916C42.372 59.8507 42.344 59.762 42.344 59.65V50.48C42.344 50.368 42.372 50.284 42.428 50.228C42.4933 50.1627 42.582 50.13 42.694 50.13H45.956C46.628 50.13 47.1973 50.2327 47.664 50.438C48.1307 50.634 48.4853 50.9233 48.728 51.306C48.98 51.6887 49.106 52.16 49.106 52.72C49.106 53.3453 48.9193 53.8633 48.546 54.274C48.1727 54.6847 47.6687 54.9553 47.034 55.086V54.89C47.734 54.9553 48.2893 55.2027 48.7 55.632C49.12 56.052 49.33 56.6167 49.33 57.326C49.33 58.2033 49.0547 58.8707 48.504 59.328C47.9533 59.776 47.1647 60 46.138 60H42.694ZM42.932 59.454H46.124C46.9827 59.454 47.6267 59.286 48.056 58.95C48.4947 58.6047 48.714 58.0773 48.714 57.368C48.714 56.6493 48.4947 56.122 48.056 55.786C47.6267 55.45 46.9827 55.282 46.124 55.282H42.932V59.454ZM42.932 54.736H45.914C46.754 54.736 47.3933 54.5633 47.832 54.218C48.2707 53.8633 48.49 53.3593 48.49 52.706C48.49 52.0433 48.2707 51.5393 47.832 51.194C47.3933 50.8487 46.754 50.676 45.914 50.676H42.932V54.736ZM54.3702 60.112C53.6982 60.112 53.1196 59.972 52.6342 59.692C52.1489 59.412 51.7709 59.0153 51.5002 58.502C51.2389 57.9793 51.1082 57.3587 51.1082 56.64C51.1082 55.9307 51.2389 55.3147 51.5002 54.792C51.7709 54.26 52.1396 53.8493 52.6062 53.56C53.0822 53.2613 53.6282 53.112 54.2442 53.112C54.6829 53.112 55.0702 53.1867 55.4062 53.336C55.7516 53.4853 56.0409 53.7 56.2742 53.98C56.5169 54.26 56.6989 54.6007 56.8202 55.002C56.9509 55.4033 57.0162 55.856 57.0162 56.36C57.0162 56.4813 56.9882 56.5747 56.9322 56.64C56.8856 56.696 56.8109 56.724 56.7082 56.724H51.4862V56.206H56.7082L56.4702 56.374C56.4702 55.8047 56.3862 55.3193 56.2182 54.918C56.0502 54.5073 55.7982 54.1947 55.4622 53.98C55.1356 53.756 54.7249 53.644 54.2302 53.644C53.6889 53.644 53.2269 53.7747 52.8442 54.036C52.4709 54.288 52.1862 54.6333 51.9902 55.072C51.8036 55.5107 51.7102 56.01 51.7102 56.57V56.64C51.7102 57.5733 51.9389 58.2967 52.3962 58.81C52.8629 59.314 53.5116 59.566 54.3422 59.566C54.7156 59.566 55.0656 59.5193 55.3922 59.426C55.7189 59.3233 56.0409 59.146 56.3582 58.894C56.4236 58.838 56.4889 58.81 56.5542 58.81C56.6289 58.8007 56.6896 58.8147 56.7362 58.852C56.7922 58.88 56.8296 58.922 56.8482 58.978C56.8762 59.0247 56.8809 59.0807 56.8622 59.146C56.8436 59.2113 56.7969 59.272 56.7222 59.328C56.4329 59.5707 56.0782 59.762 55.6582 59.902C55.2382 60.042 54.8089 60.112 54.3702 60.112ZM61.5424 60.112C60.917 60.112 60.3757 59.9673 59.9184 59.678C59.4704 59.3887 59.125 58.964 58.8824 58.404C58.6397 57.8347 58.5184 57.144 58.5184 56.332V55.254C58.5184 54.358 58.621 53.616 58.8264 53.028C59.041 52.4307 59.3677 51.95 59.8064 51.586C60.245 51.2127 60.7957 50.9233 61.4584 50.718L63.6844 50.032C63.787 50.004 63.871 50.004 63.9364 50.032C64.011 50.06 64.0624 50.116 64.0904 50.2C64.1184 50.2933 64.109 50.3727 64.0624 50.438C64.025 50.494 63.955 50.5407 63.8524 50.578L61.4864 51.292C60.9544 51.4507 60.511 51.6887 60.1564 52.006C59.8017 52.3233 59.5357 52.7107 59.3584 53.168C59.1904 53.616 59.1064 54.1153 59.1064 54.666V55.044H58.9664C59.0877 54.624 59.2744 54.274 59.5264 53.994C59.7877 53.7047 60.0957 53.4853 60.4504 53.336C60.805 53.1867 61.183 53.112 61.5844 53.112C62.191 53.112 62.7184 53.2567 63.1664 53.546C63.6144 53.8353 63.9597 54.2413 64.2024 54.764C64.445 55.2867 64.5664 55.9027 64.5664 56.612C64.5664 57.3213 64.4404 57.9373 64.1884 58.46C63.9457 58.9827 63.6004 59.3887 63.1524 59.678C62.7044 59.9673 62.1677 60.112 61.5424 60.112ZM61.5284 59.566C62.0324 59.566 62.4664 59.454 62.8304 59.23C63.1944 58.9967 63.4744 58.6607 63.6704 58.222C63.8664 57.7833 63.9644 57.2467 63.9644 56.612C63.9644 55.6787 63.745 54.9553 63.3064 54.442C62.877 53.9193 62.289 53.658 61.5424 53.658C61.0477 53.658 60.6184 53.7747 60.2544 54.008C59.8904 54.232 59.6104 54.554 59.4144 54.974C59.2184 55.394 59.1204 55.8933 59.1204 56.472C59.1204 57.4893 59.3304 58.2593 59.7504 58.782C60.1797 59.3047 60.7724 59.566 61.5284 59.566ZM66.8147 56.556C66.74 56.556 66.6747 56.5327 66.6187 56.486C66.5627 56.43 66.5347 56.3647 66.5347 56.29C66.5347 56.2153 66.5627 56.1547 66.6187 56.108C66.6747 56.052 66.74 56.024 66.8147 56.024H70.1187C70.1934 56.024 70.2587 56.052 70.3147 56.108C70.3707 56.1547 70.3987 56.2153 70.3987 56.29C70.3987 56.3647 70.3707 56.43 70.3147 56.486C70.2587 56.5327 70.1934 56.556 70.1187 56.556H66.8147ZM72.9049 62.604C72.8116 62.604 72.7369 62.576 72.6809 62.52C72.6342 62.464 72.6109 62.3893 72.6109 62.296V53.448C72.6109 53.3453 72.6342 53.2707 72.6809 53.224C72.7369 53.168 72.8116 53.14 72.9049 53.14C72.9982 53.14 73.0682 53.168 73.1149 53.224C73.1709 53.2707 73.1989 53.3453 73.1989 53.448V54.988H73.0449C73.2036 54.4093 73.5069 53.952 73.9549 53.616C74.4122 53.28 74.9676 53.112 75.6209 53.112C76.2369 53.112 76.7689 53.2567 77.2169 53.546C77.6649 53.826 78.0102 54.2273 78.2529 54.75C78.5049 55.2727 78.6309 55.8933 78.6309 56.612C78.6309 57.3213 78.5096 57.942 78.2669 58.474C78.0242 58.9967 77.6742 59.4027 77.2169 59.692C76.7689 59.972 76.2369 60.112 75.6209 60.112C74.9676 60.112 74.4122 59.944 73.9549 59.608C73.5069 59.2627 73.2036 58.8053 73.0449 58.236H73.1989V62.296C73.1989 62.3893 73.1709 62.464 73.1149 62.52C73.0682 62.576 72.9982 62.604 72.9049 62.604ZM75.6069 59.566C76.1016 59.566 76.5309 59.4493 76.8949 59.216C77.2589 58.9827 77.5389 58.6467 77.7349 58.208C77.9309 57.76 78.0289 57.228 78.0289 56.612C78.0289 55.6787 77.8096 54.9553 77.3709 54.442C76.9416 53.9193 76.3536 53.658 75.6069 53.658C75.1122 53.658 74.6829 53.7747 74.3189 54.008C73.9549 54.2413 73.6749 54.5773 73.4789 55.016C73.2829 55.4547 73.1849 55.9867 73.1849 56.612C73.1849 57.5453 73.4042 58.2733 73.8429 58.796C74.2816 59.3093 74.8696 59.566 75.6069 59.566ZM82.694 60.112C82.2553 60.112 81.8586 60.0233 81.504 59.846C81.1493 59.6687 80.8693 59.4307 80.664 59.132C80.4586 58.824 80.356 58.4833 80.356 58.11C80.356 57.606 80.4773 57.214 80.72 56.934C80.972 56.6447 81.3966 56.444 81.994 56.332C82.6006 56.2107 83.4313 56.15 84.486 56.15H85.06V56.668H84.514C83.59 56.668 82.8713 56.71 82.358 56.794C81.854 56.8687 81.4993 57.0087 81.294 57.214C81.098 57.41 81 57.69 81 58.054C81 58.502 81.154 58.8707 81.462 59.16C81.7793 59.44 82.204 59.58 82.736 59.58C83.1653 59.58 83.5386 59.4773 83.856 59.272C84.1826 59.0573 84.4393 58.7727 84.626 58.418C84.8126 58.054 84.906 57.6433 84.906 57.186V55.59C84.906 54.918 84.7753 54.428 84.514 54.12C84.2526 53.812 83.8326 53.658 83.254 53.658C82.8806 53.658 82.5213 53.7093 82.176 53.812C81.84 53.9147 81.4853 54.0733 81.112 54.288C81.028 54.3347 80.9533 54.3533 80.888 54.344C80.832 54.3347 80.7853 54.3113 80.748 54.274C80.7106 54.2273 80.6826 54.176 80.664 54.12C80.6546 54.0547 80.6593 53.994 80.678 53.938C80.706 53.882 80.7526 53.8353 80.818 53.798C81.2006 53.5647 81.5973 53.392 82.008 53.28C82.4186 53.168 82.8246 53.112 83.226 53.112C83.7393 53.112 84.164 53.2007 84.5 53.378C84.836 53.5553 85.0833 53.826 85.242 54.19C85.41 54.554 85.494 55.0207 85.494 55.59V59.776C85.494 59.8693 85.4706 59.944 85.424 60C85.3773 60.056 85.3073 60.084 85.214 60.084C85.1206 60.084 85.046 60.056 84.99 60C84.9433 59.944 84.92 59.8693 84.92 59.776V58.306H85.074C84.9806 58.6793 84.822 59.0013 84.598 59.272C84.374 59.5427 84.0986 59.7527 83.772 59.902C83.4546 60.042 83.0953 60.112 82.694 60.112ZM89.9254 60.112C89.4401 60.112 88.9641 60.0467 88.4974 59.916C88.0307 59.776 87.6481 59.58 87.3494 59.328C87.2841 59.272 87.2421 59.2113 87.2234 59.146C87.2047 59.0807 87.2047 59.02 87.2234 58.964C87.2421 58.908 87.2747 58.8613 87.3214 58.824C87.3681 58.7867 87.4241 58.7727 87.4894 58.782C87.5641 58.782 87.6387 58.8147 87.7134 58.88C88.0121 59.1133 88.3527 59.286 88.7354 59.398C89.1181 59.51 89.5147 59.566 89.9254 59.566C90.6721 59.566 91.2041 59.4447 91.5214 59.202C91.8481 58.95 92.0114 58.6 92.0114 58.152C92.0114 57.7133 91.8667 57.382 91.5774 57.158C91.2881 56.9247 90.8774 56.808 90.3454 56.808H89.1554C89.0621 56.808 88.9874 56.7847 88.9314 56.738C88.8754 56.6913 88.8474 56.6307 88.8474 56.556C88.8474 56.4813 88.8754 56.4207 88.9314 56.374C88.9874 56.3273 89.0621 56.304 89.1554 56.304H90.2334C90.7001 56.304 91.0781 56.192 91.3674 55.968C91.6567 55.7347 91.8014 55.4173 91.8014 55.016C91.8014 54.6053 91.6567 54.2787 91.3674 54.036C91.0781 53.784 90.6301 53.658 90.0234 53.658C89.6127 53.658 89.2254 53.7093 88.8614 53.812C88.5067 53.9147 88.1707 54.0733 87.8534 54.288C87.7414 54.3627 87.6434 54.3953 87.5594 54.386C87.4847 54.3767 87.4241 54.3393 87.3774 54.274C87.3401 54.2087 87.3307 54.134 87.3494 54.05C87.3681 53.966 87.4194 53.896 87.5034 53.84C87.8394 53.5973 88.2221 53.4153 88.6514 53.294C89.0807 53.1727 89.5381 53.112 90.0234 53.112C90.8354 53.112 91.4327 53.28 91.8154 53.616C92.2074 53.952 92.4034 54.4187 92.4034 55.016C92.4034 55.4547 92.2494 55.8233 91.9414 56.122C91.6334 56.4207 91.2321 56.5933 90.7374 56.64V56.472C91.2881 56.472 91.7407 56.6307 92.0954 56.948C92.4501 57.256 92.6274 57.6573 92.6274 58.152C92.6274 58.74 92.4034 59.216 91.9554 59.58C91.5167 59.9347 90.8401 60.112 89.9254 60.112ZM94.8893 62.604C94.7959 62.604 94.7213 62.576 94.6653 62.52C94.6186 62.464 94.5953 62.3893 94.5953 62.296V53.448C94.5953 53.3453 94.6186 53.2707 94.6653 53.224C94.7213 53.168 94.7959 53.14 94.8893 53.14C94.9826 53.14 95.0526 53.168 95.0993 53.224C95.1553 53.2707 95.1833 53.3453 95.1833 53.448V54.988H95.0293C95.1879 54.4093 95.4913 53.952 95.9393 53.616C96.3966 53.28 96.9519 53.112 97.6053 53.112C98.2213 53.112 98.7533 53.2567 99.2013 53.546C99.6493 53.826 99.9946 54.2273 100.237 54.75C100.489 55.2727 100.615 55.8933 100.615 56.612C100.615 57.3213 100.494 57.942 100.251 58.474C100.009 58.9967 99.6586 59.4027 99.2013 59.692C98.7533 59.972 98.2213 60.112 97.6053 60.112C96.9519 60.112 96.3966 59.944 95.9393 59.608C95.4913 59.2627 95.1879 58.8053 95.0293 58.236H95.1833V62.296C95.1833 62.3893 95.1553 62.464 95.0993 62.52C95.0526 62.576 94.9826 62.604 94.8893 62.604ZM97.5913 59.566C98.0859 59.566 98.5153 59.4493 98.8793 59.216C99.2433 58.9827 99.5233 58.6467 99.7193 58.208C99.9153 57.76 100.013 57.228 100.013 56.612C100.013 55.6787 99.7939 54.9553 99.3553 54.442C98.9259 53.9193 98.3379 53.658 97.5913 53.658C97.0966 53.658 96.6673 53.7747 96.3033 54.008C95.9393 54.2413 95.6593 54.5773 95.4633 55.016C95.2673 55.4547 95.1693 55.9867 95.1693 56.612C95.1693 57.5453 95.3886 58.2733 95.8273 58.796C96.2659 59.3093 96.8539 59.566 97.5913 59.566ZM104.678 60.112C104.24 60.112 103.843 60.0233 103.488 59.846C103.134 59.6687 102.854 59.4307 102.648 59.132C102.443 58.824 102.34 58.4833 102.34 58.11C102.34 57.606 102.462 57.214 102.704 56.934C102.956 56.6447 103.381 56.444 103.978 56.332C104.585 56.2107 105.416 56.15 106.47 56.15H107.044V56.668H106.498C105.574 56.668 104.856 56.71 104.342 56.794C103.838 56.8687 103.484 57.0087 103.278 57.214C103.082 57.41 102.984 57.69 102.984 58.054C102.984 58.502 103.138 58.8707 103.446 59.16C103.764 59.44 104.188 59.58 104.72 59.58C105.15 59.58 105.523 59.4773 105.84 59.272C106.167 59.0573 106.424 58.7727 106.61 58.418C106.797 58.054 106.89 57.6433 106.89 57.186V55.59C106.89 54.918 106.76 54.428 106.498 54.12C106.237 53.812 105.817 53.658 105.238 53.658C104.865 53.658 104.506 53.7093 104.16 53.812C103.824 53.9147 103.47 54.0733 103.096 54.288C103.012 54.3347 102.938 54.3533 102.872 54.344C102.816 54.3347 102.77 54.3113 102.732 54.274C102.695 54.2273 102.667 54.176 102.648 54.12C102.639 54.0547 102.644 53.994 102.662 53.938C102.69 53.882 102.737 53.8353 102.802 53.798C103.185 53.5647 103.582 53.392 103.992 53.28C104.403 53.168 104.809 53.112 105.21 53.112C105.724 53.112 106.148 53.2007 106.484 53.378C106.82 53.5553 107.068 53.826 107.226 54.19C107.394 54.554 107.478 55.0207 107.478 55.59V59.776C107.478 59.8693 107.455 59.944 107.408 60C107.362 60.056 107.292 60.084 107.198 60.084C107.105 60.084 107.03 60.056 106.974 60C106.928 59.944 106.904 59.8693 106.904 59.776V58.306H107.058C106.965 58.6793 106.806 59.0013 106.582 59.272C106.358 59.5427 106.083 59.7527 105.756 59.902C105.439 60.042 105.08 60.112 104.678 60.112ZM112.484 60.112C111.858 60.112 111.317 59.9673 110.86 59.678C110.412 59.3887 110.066 58.964 109.824 58.404C109.581 57.8347 109.46 57.144 109.46 56.332V55.254C109.46 54.358 109.562 53.616 109.768 53.028C109.982 52.4307 110.309 51.95 110.748 51.586C111.186 51.2127 111.737 50.9233 112.4 50.718L114.626 50.032C114.728 50.004 114.812 50.004 114.878 50.032C114.952 50.06 115.004 50.116 115.032 50.2C115.06 50.2933 115.05 50.3727 115.004 50.438C114.966 50.494 114.896 50.5407 114.794 50.578L112.428 51.292C111.896 51.4507 111.452 51.6887 111.098 52.006C110.743 52.3233 110.477 52.7107 110.3 53.168C110.132 53.616 110.048 54.1153 110.048 54.666V55.044H109.908C110.029 54.624 110.216 54.274 110.468 53.994C110.729 53.7047 111.037 53.4853 111.392 53.336C111.746 53.1867 112.124 53.112 112.526 53.112C113.132 53.112 113.66 53.2567 114.108 53.546C114.556 53.8353 114.901 54.2413 115.144 54.764C115.386 55.2867 115.508 55.9027 115.508 56.612C115.508 57.3213 115.382 57.9373 115.13 58.46C114.887 58.9827 114.542 59.3887 114.094 59.678C113.646 59.9673 113.109 60.112 112.484 60.112ZM112.47 59.566C112.974 59.566 113.408 59.454 113.772 59.23C114.136 58.9967 114.416 58.6607 114.612 58.222C114.808 57.7833 114.906 57.2467 114.906 56.612C114.906 55.6787 114.686 54.9553 114.248 54.442C113.818 53.9193 113.23 53.658 112.484 53.658C111.989 53.658 111.56 53.7747 111.196 54.008C110.832 54.232 110.552 54.554 110.356 54.974C110.16 55.394 110.062 55.8933 110.062 56.472C110.062 57.4893 110.272 58.2593 110.692 58.782C111.121 59.3047 111.714 59.566 112.47 59.566ZM120.099 60.112C119.483 60.112 118.946 59.9673 118.489 59.678C118.041 59.3887 117.691 58.9827 117.439 58.46C117.196 57.9373 117.075 57.3213 117.075 56.612C117.075 56.08 117.145 55.5993 117.285 55.17C117.425 54.7407 117.626 54.372 117.887 54.064C118.158 53.756 118.48 53.5227 118.853 53.364C119.226 53.196 119.642 53.112 120.099 53.112C120.715 53.112 121.247 53.2567 121.695 53.546C122.152 53.8353 122.502 54.2413 122.745 54.764C122.997 55.2867 123.123 55.9027 123.123 56.612C123.123 57.144 123.053 57.6247 122.913 58.054C122.773 58.4833 122.568 58.852 122.297 59.16C122.036 59.468 121.718 59.706 121.345 59.874C120.981 60.0327 120.566 60.112 120.099 60.112ZM120.099 59.566C120.594 59.566 121.023 59.4493 121.387 59.216C121.751 58.9827 122.031 58.6467 122.227 58.208C122.423 57.76 122.521 57.228 122.521 56.612C122.521 55.6787 122.302 54.9553 121.863 54.442C121.434 53.9193 120.846 53.658 120.099 53.658C119.604 53.658 119.175 53.7747 118.811 54.008C118.447 54.2413 118.167 54.5773 117.971 55.016C117.775 55.4547 117.677 55.9867 117.677 56.612C117.677 57.5453 117.896 58.2733 118.335 58.796C118.774 59.3093 119.362 59.566 120.099 59.566ZM126.832 60.084C126.739 60.084 126.664 60.056 126.608 60C126.562 59.944 126.538 59.8693 126.538 59.776V53.742H124.172C123.967 53.742 123.864 53.6533 123.864 53.476C123.864 53.4013 123.892 53.3407 123.948 53.294C124.004 53.2473 124.079 53.224 124.172 53.224H129.492C129.698 53.224 129.8 53.308 129.8 53.476C129.8 53.56 129.772 53.6253 129.716 53.672C129.67 53.7187 129.595 53.742 129.492 53.742H127.126V59.776C127.126 59.8693 127.103 59.944 127.056 60C127.01 60.056 126.935 60.084 126.832 60.084ZM135.68 60.084C135.586 60.084 135.512 60.056 135.456 60C135.409 59.944 135.386 59.8693 135.386 59.776V57.004C135.115 57.1907 134.812 57.3353 134.476 57.438C134.149 57.5313 133.79 57.578 133.398 57.578C132.464 57.578 131.778 57.3587 131.34 56.92C130.91 56.4813 130.696 55.8093 130.696 54.904V53.448C130.696 53.3453 130.719 53.2707 130.766 53.224C130.822 53.168 130.896 53.14 130.99 53.14C131.083 53.14 131.153 53.168 131.2 53.224C131.256 53.2707 131.284 53.3453 131.284 53.448V54.89C131.284 55.6273 131.452 56.1687 131.788 56.514C132.124 56.8593 132.656 57.032 133.384 57.032C133.794 57.032 134.154 56.9853 134.462 56.892C134.779 56.7987 135.087 56.6447 135.386 56.43V53.448C135.386 53.2427 135.484 53.14 135.68 53.14C135.773 53.14 135.843 53.168 135.89 53.224C135.946 53.2707 135.974 53.3453 135.974 53.448V59.776C135.974 59.8693 135.95 59.944 135.904 60C135.857 60.056 135.782 60.084 135.68 60.084ZM138.707 60.084C138.66 60.084 138.614 60.0747 138.567 60.056C138.53 60.0373 138.497 60.0047 138.469 59.958C138.45 59.902 138.441 59.8367 138.441 59.762V53.448C138.441 53.3453 138.464 53.2707 138.511 53.224C138.567 53.168 138.637 53.14 138.721 53.14C138.805 53.14 138.87 53.168 138.917 53.224C138.964 53.2707 138.987 53.3453 138.987 53.448V59.552H138.651L143.285 53.336C143.332 53.2613 143.383 53.21 143.439 53.182C143.495 53.154 143.56 53.14 143.635 53.14C143.691 53.14 143.738 53.1493 143.775 53.168C143.812 53.1867 143.84 53.2193 143.859 53.266C143.887 53.3127 143.901 53.378 143.901 53.462V59.776C143.901 59.8693 143.878 59.944 143.831 60C143.784 60.056 143.719 60.084 143.635 60.084C143.542 60.084 143.472 60.056 143.425 60C143.378 59.944 143.355 59.8693 143.355 59.776V53.672H143.691L139.057 59.888C139.01 59.9533 138.959 60 138.903 60.028C138.847 60.0653 138.782 60.084 138.707 60.084ZM146.665 60.084C146.571 60.084 146.497 60.056 146.441 60C146.394 59.944 146.371 59.8693 146.371 59.776V53.49C146.371 53.3873 146.394 53.3127 146.441 53.266C146.497 53.21 146.571 53.182 146.665 53.182C146.758 53.182 146.828 53.21 146.875 53.266C146.931 53.3127 146.959 53.3873 146.959 53.49V56.234H148.471L150.851 53.308C150.897 53.2427 150.949 53.2053 151.005 53.196C151.07 53.1773 151.126 53.1773 151.173 53.196C151.229 53.2147 151.271 53.2473 151.299 53.294C151.336 53.3407 151.35 53.3967 151.341 53.462C151.341 53.5273 151.313 53.5927 151.257 53.658L149.017 56.416L148.751 56.248C149.021 56.276 149.25 56.3367 149.437 56.43C149.623 56.514 149.805 56.6633 149.983 56.878C150.169 57.0927 150.389 57.4053 150.641 57.816L151.789 59.664C151.826 59.7293 151.84 59.79 151.831 59.846C151.831 59.902 151.807 59.9533 151.761 60C151.723 60.0373 151.677 60.0607 151.621 60.07C151.574 60.0887 151.523 60.084 151.467 60.056C151.411 60.0373 151.359 59.9953 151.313 59.93L150.053 57.9C149.866 57.6013 149.689 57.368 149.521 57.2C149.353 57.032 149.166 56.9153 148.961 56.85C148.755 56.7753 148.499 56.738 148.191 56.738H146.959V59.776C146.959 59.8693 146.931 59.944 146.875 60C146.828 60.056 146.758 60.084 146.665 60.084Z" fill="#E31010"/>
<path d="M0 27H30" stroke="#CF1F1F"/>
<path d="M164 27H194" stroke="#CF1F1F"/>
</svg>
